<?xml version="1.0" encoding="utf-8"?>
<!-- Generator: Adobe Illustrator 16.0.0, SVG Export Plug-In . SVG Version: 6.00 Build 0)  -->
<!DOCTYPE svg PUBLIC "-//W3C//DTD SVG 1.1//EN" "http://www.w3.org/Graphics/SVG/1.1/DTD/svg11.dtd">
<svg version="1.1" id="Layer_1" xmlns="http://www.w3.org/2000/svg" xmlns:xlink="http://www.w3.org/1999/xlink" x="0px" y="0px"
	 width="75px" height="75px" viewBox="0 0 75 75" enable-background="new 0 0 75 75" xml:space="preserve">
<g>
	<path d="M58.325,43.76c0.009-0.03,0.016-0.06,0.021-0.091C58.771,41.679,59,39.615,59,37.5c0-8.627-3.723-16.4-9.646-21.799
		c-0.047-0.052-0.097-0.095-0.153-0.135C43.975,10.866,37.066,8,29.5,8c-3.141,0-6.167,0.498-9.008,1.412
		c-0.026,0.007-0.05,0.017-0.076,0.026C10.522,12.647,2.907,20.95,0.675,31.241C0.666,31.271,0.66,31.3,0.654,31.33
		C0.229,33.321,0,35.384,0,37.5c0,8.604,3.703,16.355,9.597,21.753c0.078,0.099,0.168,0.182,0.273,0.244
		C15.089,64.159,21.968,67,29.5,67c3.157,0,6.198-0.504,9.053-1.427c0.031-0.01,0.062-0.019,0.092-0.031
		C48.508,62.317,56.097,54.029,58.325,43.76z M39.412,63.145l1.812-17.148C42.963,43.605,44,40.675,44,37.5
		c0-0.921-0.096-1.819-0.261-2.692l12.5,9.097C54.125,52.729,47.748,59.911,39.412,63.145z M17,37.5C17,30.607,22.607,25,29.5,25
		S42,30.607,42,37.5S36.393,50,29.5,50S17,44.393,17,37.5z M57,37.5c0,1.443-0.113,2.86-0.328,4.244L42.732,31.601
		c-1.62-3.62-4.681-6.45-8.45-7.773l14.117-6.275C53.69,22.567,57,29.652,57,37.5z M46.743,16.1l-15.71,6.983
		C30.529,23.03,30.018,23,29.5,23c-3.611,0-6.91,1.335-9.451,3.527l1.625-15.387C24.156,10.402,26.781,10,29.5,10
		C36.025,10,42.023,12.289,46.743,16.1z M19.587,11.856l-1.812,17.147C16.038,31.394,15,34.325,15,37.5
		c0,0.921,0.096,1.819,0.261,2.692l-12.5-9.097C4.875,22.271,11.251,15.089,19.587,11.856z M2,37.5c0-1.443,0.113-2.861,0.329-4.245
		l13.938,10.144c1.621,3.621,4.681,6.451,8.451,7.774l-14.117,6.275C5.31,52.433,2,45.348,2,37.5z M12.257,58.9l15.71-6.983
		C28.472,51.971,28.982,52,29.5,52c3.612,0,6.912-1.336,9.453-3.528l-1.627,15.388C34.844,64.598,32.219,65,29.5,65
		C22.975,65,16.978,62.712,12.257,58.9z"/>
	<path d="M35,37.5c0-3.033-2.467-5.5-5.5-5.5S24,34.467,24,37.5c0,3.032,2.467,5.5,5.5,5.5S35,40.532,35,37.5z M26,37.5
		c0-1.93,1.57-3.5,3.5-3.5s3.5,1.57,3.5,3.5S31.43,41,29.5,41S26,39.43,26,37.5z"/>
	<circle cx="38.5" cy="37.5" r="1.5"/>
</g>
</svg>
