<?xml version="1.0" encoding="utf-8"?>
<!-- Generator: Adobe Illustrator 16.0.0, SVG Export Plug-In . SVG Version: 6.00 Build 0)  -->
<!DOCTYPE svg PUBLIC "-//W3C//DTD SVG 1.1//EN" "http://www.w3.org/Graphics/SVG/1.1/DTD/svg11.dtd">
<svg version="1.1" id="Layer_1" xmlns="http://www.w3.org/2000/svg" xmlns:xlink="http://www.w3.org/1999/xlink" x="0px" y="0px"
	 width="75px" height="75px" viewBox="0 0 75 75" enable-background="new 0 0 75 75" xml:space="preserve">
<g>
	<g>
		<g>
			<path fill="#40B549" d="M47.54,34.59c-0.49,0-0.95-0.33-1.09-0.83c-0.16-0.6,0.19-1.22,0.79-1.38l15.31-4.19
				c0.6-0.16,1.22,0.19,1.38,0.79c0.16,0.6-0.19,1.22-0.79,1.38l-15.3,4.19C47.74,34.58,47.64,34.59,47.54,34.59z"/>
		</g>
		<g>
			<path fill="#C73A32" d="M1.67,47.15c-0.49,0-0.95-0.33-1.09-0.83c-0.16-0.6,0.19-1.22,0.79-1.38l15.31-4.2
				c0.6-0.16,1.22,0.19,1.38,0.79c0.17,0.6-0.19,1.22-0.79,1.38L1.97,47.11C1.87,47.14,1.77,47.15,1.67,47.15z"/>
		</g>
		<g>
			<path fill="#84C441" d="M46.09,30.88c-0.39,0-0.77-0.2-0.98-0.57c-0.31-0.54-0.12-1.23,0.42-1.54l13.65-7.81
				c0.54-0.31,1.23-0.12,1.54,0.42c0.31,0.54,0.12,1.23-0.42,1.54l-13.65,7.81C46.47,30.83,46.28,30.88,46.09,30.88z"/>
		</g>
		<g>
			<path fill="#A93E66" d="M4.78,54.47c-0.39,0-0.77-0.2-0.98-0.57c-0.31-0.54-0.12-1.23,0.42-1.54l13.76-7.85
				c0.54-0.31,1.23-0.12,1.54,0.42s0.12,1.23-0.42,1.54L5.34,54.33C5.16,54.43,4.97,54.47,4.78,54.47z"/>
		</g>
		<g>
			<path fill="#CBDB2A" d="M40.2,25.26c-0.19,0-0.39-0.05-0.57-0.15c-0.54-0.32-0.72-1-0.4-1.54l7.99-13.63
				c0.31-0.54,1-0.72,1.54-0.4c0.54,0.32,0.72,1,0.4,1.54L41.17,24.7C40.96,25.06,40.59,25.26,40.2,25.26z"/>
		</g>
		<g>
			<path fill="#953F7A" d="M16.33,65.91c-0.19,0-0.39-0.05-0.57-0.16c-0.54-0.31-0.72-1-0.4-1.54l7.98-13.58
				c0.31-0.54,1-0.72,1.54-0.4c0.54,0.31,0.72,1,0.4,1.54L17.3,65.36C17.09,65.71,16.71,65.91,16.33,65.91z"/>
		</g>
		<g>
			<path fill="#ECE824" d="M36.37,23.66c-0.1,0-0.2-0.01-0.29-0.04c-0.6-0.16-0.96-0.78-0.8-1.38l4.09-15.21
				c0.16-0.6,0.79-0.96,1.38-0.8c0.6,0.16,0.96,0.78,0.8,1.38l-4.09,15.21C37.32,23.33,36.86,23.66,36.37,23.66z"/>
		</g>
		<g>
			<path fill="#53357E" d="M24.07,69.09c-0.1,0-0.2-0.01-0.29-0.04c-0.6-0.16-0.96-0.78-0.79-1.38l4.09-15.17
				c0.16-0.6,0.78-0.96,1.38-0.79c0.6,0.16,0.96,0.78,0.79,1.38l-4.09,15.17C25.02,68.76,24.56,69.09,24.07,69.09z"/>
		</g>
		<g>
			<path fill="#991B4A" d="M9.82,60.96c-0.29,0-0.58-0.11-0.8-0.33c-0.44-0.44-0.43-1.16,0.01-1.59l11.29-11.16
				c0.44-0.44,1.16-0.43,1.6,0.01c0.44,0.44,0.43,1.15-0.01,1.59l-11.3,11.16C10.39,60.86,10.1,60.96,9.82,60.96z"/>
		</g>
		<g>
			<path fill="#C3DA42" d="M43.47,27.68c-0.29,0-0.58-0.11-0.8-0.33c-0.44-0.44-0.43-1.16,0.01-1.59l11.24-11.1
				c0.44-0.44,1.16-0.43,1.59,0.01c0.44,0.44,0.43,1.16-0.01,1.59l-11.24,11.1C44.04,27.58,43.75,27.68,43.47,27.68z"/>
		</g>
		<g>
			<path fill="#49CEEE" d="M48.12,65.95c-0.39,0-0.77-0.2-0.98-0.56l-7.92-13.6c-0.31-0.54-0.13-1.23,0.41-1.54
				c0.54-0.31,1.23-0.13,1.54,0.41l7.92,13.6c0.31,0.54,0.13,1.23-0.41,1.54C48.51,65.9,48.31,65.95,48.12,65.95z"/>
		</g>
		<g>
			<path fill="#FFCB06" d="M24.38,25.26c-0.39,0-0.76-0.2-0.97-0.56l-7.98-13.67c-0.31-0.54-0.13-1.23,0.41-1.54
				c0.54-0.31,1.23-0.13,1.54,0.4l7.97,13.67c0.31,0.54,0.13,1.23-0.4,1.54C24.76,25.21,24.57,25.26,24.38,25.26z"/>
		</g>
		<g>
			<path fill="#FAA31A" d="M21.05,27.68c-0.29,0-0.57-0.1-0.79-0.32L9.03,16.26c-0.44-0.44-0.45-1.15-0.01-1.59
				c0.44-0.44,1.15-0.44,1.59-0.01l11.23,11.1c0.44,0.44,0.45,1.15,0.01,1.59C21.63,27.57,21.34,27.68,21.05,27.68z"/>
		</g>
		<g>
			<path fill="#51C3BF" d="M54.71,60.96c-0.29,0-0.58-0.11-0.8-0.33L42.74,49.47c-0.44-0.44-0.44-1.15,0-1.59
				c0.44-0.44,1.15-0.44,1.59,0l11.18,11.16c0.44,0.44,0.44,1.15,0,1.59C55.29,60.85,55,60.96,54.71,60.96z"/>
		</g>
		<g>
			<path fill="#80CDED" d="M40.35,69.11c-0.5,0-0.96-0.33-1.09-0.84l-3.99-15.19c-0.16-0.6,0.2-1.22,0.81-1.38
				c0.6-0.15,1.22,0.2,1.38,0.8l3.98,15.19c0.16,0.6-0.2,1.22-0.8,1.38C40.54,69.1,40.44,69.11,40.35,69.11z"/>
		</g>
		<g>
			<path fill="#FEDB00" d="M28.22,23.66c-0.5,0-0.95-0.33-1.09-0.84L23.08,7.59c-0.16-0.6,0.2-1.22,0.8-1.38
				c0.61-0.15,1.22,0.2,1.38,0.8l4.05,15.23c0.16,0.6-0.2,1.22-0.8,1.38C28.41,23.65,28.31,23.66,28.22,23.66z"/>
		</g>
		<g>
			<path fill="#50C6C3" d="M59.72,54.52c-0.19,0-0.38-0.05-0.56-0.15l-13.74-7.88c-0.54-0.31-0.73-1-0.42-1.54
				c0.31-0.54,1-0.72,1.54-0.42l13.74,7.88c0.54,0.31,0.73,1,0.42,1.54C60.49,54.32,60.11,54.52,59.72,54.52z"/>
		</g>
		<g>
			<path fill="#F47920" d="M18.56,30.88c-0.19,0-0.38-0.05-0.56-0.15L4.24,22.87c-0.54-0.31-0.73-1-0.42-1.54
				c0.31-0.54,1-0.73,1.54-0.42l13.75,7.86c0.54,0.31,0.73,1,0.42,1.54C19.33,30.67,18.95,30.88,18.56,30.88z"/>
		</g>
		<g>
			<path fill="#F15822" d="M16.97,34.73c-0.09,0-0.19-0.01-0.28-0.04L1.29,30.74c-0.6-0.15-0.97-0.77-0.81-1.37
				c0.15-0.6,0.77-0.97,1.37-0.81l15.41,3.95c0.6,0.15,0.97,0.77,0.81,1.37C17.93,34.39,17.48,34.73,16.97,34.73z"/>
		</g>
		<g>
			<path fill="#08B097" d="M62.95,46.77c-0.09,0-0.19-0.01-0.29-0.04l-15.35-4c-0.6-0.16-0.96-0.77-0.8-1.37
				c0.15-0.6,0.77-0.97,1.37-0.81l15.35,4c0.6,0.16,0.96,0.77,0.8,1.38C63.91,46.43,63.45,46.77,62.95,46.77z"/>
		</g>
	</g>
	<g>
		<path fill="#FEE600" d="M32.12,5c0.63,0,1.13,0.5,1.13,1.12v15.69c0,0.63-0.5,1.12-1.13,1.12c-0.63,0-1.13-0.5-1.13-1.12V6.12
			C30.99,5.5,31.49,5,32.12,5L32.12,5z M32.12,5"/>
	</g>
	<g>
		<path fill="#3A5EAB" d="M32.12,52.07c0.63,0,1.13,0.5,1.13,1.12v15.69c0,0.62-0.5,1.12-1.13,1.12c-0.63,0-1.13-0.5-1.13-1.12
			V53.19C30.99,52.57,31.49,52.07,32.12,52.07L32.12,52.07z M32.12,52.07"/>
	</g>
	<g>
		<path fill="#0FB15C" d="M46.86,37.5c0-0.62,0.5-1.12,1.13-1.12h15.87c0.63,0,1.13,0.5,1.13,1.12c0,0.62-0.5,1.12-1.13,1.12H47.99
			C47.36,38.62,46.86,38.12,46.86,37.5L46.86,37.5z M46.86,37.5"/>
	</g>
	<g>
		<path fill="#EE2C24" d="M0,37.5c0-0.62,0.5-1.12,1.13-1.12h15.87c0.63,0,1.13,0.5,1.13,1.12c0,0.62-0.5,1.12-1.13,1.12H1.13
			C0.5,38.62,0,38.12,0,37.5L0,37.5z M0,37.5"/>
	</g>
</g>
</svg>
