<?xml version="1.0" encoding="utf-8"?>
<!-- Generator: Adobe Illustrator 16.0.0, SVG Export Plug-In . SVG Version: 6.00 Build 0)  -->
<!DOCTYPE svg PUBLIC "-//W3C//DTD SVG 1.1//EN" "http://www.w3.org/Graphics/SVG/1.1/DTD/svg11.dtd">
<svg version="1.1" id="Layer_1" xmlns="http://www.w3.org/2000/svg" xmlns:xlink="http://www.w3.org/1999/xlink" x="0px" y="0px"
	 width="75px" height="75px" viewBox="0 0 75 75" enable-background="new 0 0 75 75" xml:space="preserve">
<g>
	<path d="M30.37,2H4.63C2.07,2,0,4.07,0,6.61v59.77C0,68.94,2.07,71,4.63,71h25.75c2.55,0,4.63-2.06,4.63-4.61V6.61
		C35,4.07,32.93,2,30.37,2z"/>
</g>
<g>
	<path fill="#FFFFFF" d="M21,6.5C21,6.78,20.73,7,20.41,7h-3.81C16.27,7,16,6.78,16,6.5l0,0C16,6.22,16.27,6,16.59,6h3.81
		C20.73,6,21,6.22,21,6.5L21,6.5z"/>
	<circle fill="#FFFFFF" cx="14.5" cy="6.5" r="0.5"/>
</g>
<circle fill="#FFFFFF" cx="17.5" cy="66.5" r="2.5"/>
<rect x="2" y="11" fill="#FFFFFF" width="31" height="51"/>
</svg>
