<?xml version="1.0" encoding="utf-8"?>
<!-- Generator: Adobe Illustrator 16.0.0, SVG Export Plug-In . SVG Version: 6.00 Build 0)  -->
<!DOCTYPE svg PUBLIC "-//W3C//DTD SVG 1.1//EN" "http://www.w3.org/Graphics/SVG/1.1/DTD/svg11.dtd">
<svg version="1.1" id="Layer_1" xmlns="http://www.w3.org/2000/svg" xmlns:xlink="http://www.w3.org/1999/xlink" x="0px" y="0px"
	 width="75px" height="75px" viewBox="0 0 75 75" enable-background="new 0 0 75 75" xml:space="preserve">
<g>
	<path d="M26.09,11H3.91C1.75,11,0,12.79,0,15v47c0,2.21,1.75,4,3.91,4h22.18c2.16,0,3.91-1.79,3.91-4V15
		C30,12.79,28.25,11,26.09,11z M28,58H2V18h26V58z"/>
	<circle fill="#FFFFFF" cx="15" cy="62" r="2"/>
	<g>
		<path fill="#FFFFFF" d="M18,14.5c0,0.28-0.27,0.5-0.59,0.5h-2.81C14.27,15,14,14.78,14,14.5l0,0c0-0.28,0.27-0.5,0.59-0.5h2.81
			C17.73,14,18,14.22,18,14.5L18,14.5z"/>
		<circle fill="#FFFFFF" cx="12.5" cy="14.5" r="0.5"/>
	</g>
</g>
<g>
	<path d="M59.09,15H40.91C38.75,15,37,16.79,37,19v43c0,2.21,1.75,4,3.91,4h18.18c2.16,0,3.91-1.79,3.91-4V19
		C63,16.79,61.25,15,59.09,15z M61,58H39V22h22V58z"/>
	<circle fill="#FFFFFF" cx="50" cy="62" r="2"/>
	<g>
		<path fill="#FFFFFF" d="M53,18.5c0,0.28-0.27,0.5-0.59,0.5h-2.81C49.27,19,49,18.78,49,18.5l0,0c0-0.28,0.27-0.5,0.59-0.5h2.81
			C52.73,18,53,18.22,53,18.5L53,18.5z"/>
		<circle fill="#FFFFFF" cx="47.5" cy="18.5" r="0.5"/>
	</g>
</g>
</svg>
