<?xml version="1.0" encoding="utf-8"?>
<!-- Generator: Adobe Illustrator 16.0.0, SVG Export Plug-In . SVG Version: 6.00 Build 0)  -->
<!DOCTYPE svg PUBLIC "-//W3C//DTD SVG 1.1//EN" "http://www.w3.org/Graphics/SVG/1.1/DTD/svg11.dtd">
<svg version="1.1" id="Layer_1" xmlns="http://www.w3.org/2000/svg" xmlns:xlink="http://www.w3.org/1999/xlink" x="0px" y="0px"
	 width="75px" height="75px" viewBox="0 0 75 75" enable-background="new 0 0 75 75" xml:space="preserve">
<g>
	<path d="M72.822,37.431C64.399,25.268,47.74,18,36.5,18S8.6,25.268,0.178,37.431c-0.237,0.342-0.237,0.796,0,1.139
		C8.6,50.732,25.26,58,36.5,58s27.899-7.268,36.322-19.431C73.06,38.227,73.06,37.773,72.822,37.431z M2.225,38
		c5.349-7.388,13.866-12.802,22.071-15.671C19.738,25.996,16.8,31.651,16.8,38s2.938,12.004,7.497,15.671
		C16.091,50.802,7.574,45.389,2.225,38z M36.5,20c9.76,0,17.7,8.075,17.7,18c0,9.925-7.94,18-17.7,18s-17.7-8.075-17.7-18
		C18.8,28.075,26.74,20,36.5,20z M48.703,53.671C53.262,50.004,56.2,44.349,56.2,38s-2.938-12.004-7.497-15.671
		C56.909,25.198,65.426,30.612,70.774,38C65.426,45.389,56.909,50.802,48.703,53.671z"/>
	<path d="M36.5,47.811c5.33,0,9.65-4.393,9.65-9.811s-4.32-9.81-9.65-9.81c-1.591,0-3.088,0.398-4.411,1.091
		c0.96,0.525,1.621,1.543,1.621,2.729c0,1.718-1.37,3.11-3.06,3.11c-1.175,0-2.183-0.681-2.696-1.668
		c-0.702,1.36-1.104,2.905-1.104,4.548C26.85,43.418,31.17,47.811,36.5,47.811z"/>
</g>
</svg>
