<?xml version="1.0" encoding="utf-8"?>
<!-- Generator: Adobe Illustrator 16.0.0, SVG Export Plug-In . SVG Version: 6.00 Build 0)  -->
<!DOCTYPE svg PUBLIC "-//W3C//DTD SVG 1.1//EN" "http://www.w3.org/Graphics/SVG/1.1/DTD/svg11.dtd">
<svg version="1.1" id="Layer_1" xmlns="http://www.w3.org/2000/svg" xmlns:xlink="http://www.w3.org/1999/xlink" x="0px" y="0px"
	 width="75px" height="75px" viewBox="0 0 75 75" enable-background="new 0 0 75 75" xml:space="preserve">
<g>
	<g>
		<path d="M32,17.45c-0.552,0-1-0.448-1-1V5.97c0-0.552,0.448-1,1-1s1,0.448,1,1v10.48C33,17.002,32.552,17.45,32,17.45z"/>
	</g>
	<g>
		<path d="M32,69c-0.552,0-1-0.447-1-1V57.51c0-0.553,0.448-1,1-1s1,0.447,1,1V68C33,68.553,32.552,69,32,69z"/>
	</g>
	<g>
		<path d="M63,38H52.52c-0.553,0-1-0.448-1-1s0.447-1,1-1H63c0.553,0,1,0.448,1,1S63.553,38,63,38z"/>
	</g>
	<g>
		<path d="M11.48,38H1c-0.552,0-1-0.448-1-1s0.448-1,1-1h10.48c0.552,0,1,0.448,1,1S12.032,38,11.48,38z"/>
	</g>
	<g>
		<path d="M46.51,23.47c-0.256,0-0.511-0.097-0.706-0.292c-0.392-0.39-0.392-1.023-0.002-1.415l5.11-5.12
			c0.391-0.392,1.023-0.391,1.414-0.001c0.392,0.39,0.392,1.023,0.002,1.415l-5.11,5.12C47.022,23.373,46.766,23.47,46.51,23.47z"/>
	</g>
	<g>
		<path d="M12.38,57.62c-0.256,0-0.511-0.098-0.707-0.292c-0.391-0.391-0.392-1.023-0.001-1.414l5.11-5.12
			c0.39-0.393,1.023-0.391,1.415-0.002c0.391,0.391,0.392,1.023,0.001,1.414l-5.11,5.12C12.893,57.522,12.636,57.62,12.38,57.62z"/>
	</g>
	<g>
		<path d="M17.49,23.47c-0.256,0-0.512-0.098-0.708-0.293l-5.11-5.12c-0.39-0.391-0.389-1.024,0.001-1.415
			c0.392-0.391,1.024-0.389,1.415,0.001l5.11,5.12c0.39,0.391,0.389,1.024-0.001,1.415C18.001,23.373,17.746,23.47,17.49,23.47z"/>
	</g>
	<g>
		<path d="M51.62,57.62c-0.256,0-0.513-0.098-0.708-0.294l-5.11-5.12c-0.39-0.391-0.39-1.023,0.002-1.414
			c0.389-0.389,1.023-0.391,1.414,0.002l5.11,5.12c0.39,0.391,0.39,1.023-0.002,1.414C52.132,57.522,51.876,57.62,51.62,57.62z"/>
	</g>
</g>
<g>
	<g>
		<path d="M32,23c-2.93,0-5.64,0.9-7.89,2.44h15.781C37.64,23.9,34.93,23,32,23z"/>
	</g>
	<g>
		<path d="M19.82,43.891h24.35c0.68-1.201,1.189-2.511,1.49-3.9H18.33C18.63,41.38,19.14,42.689,19.82,43.891z"/>
	</g>
	<g>
		<path d="M32,51c4.55,0,8.57-2.18,11.13-5.529H20.87C23.43,48.82,27.45,51,32,51z"/>
	</g>
	<g>
		<path d="M18,37c0,0.25,0.02,0.5,0.04,0.74h27.931C45.98,37.5,46,37.25,46,37c0-0.85-0.09-1.67-0.23-2.47H18.23
			C18.09,35.33,18,36.15,18,37z"/>
	</g>
	<g>
		<path d="M20.48,29.06c-0.55,0.79-1.02,1.64-1.39,2.53h25.83c-0.38-0.9-0.85-1.74-1.391-2.53H20.48z"/>
	</g>
</g>
</svg>
