<?xml version="1.0" encoding="utf-8"?>
<!-- Generator: Adobe Illustrator 16.0.0, SVG Export Plug-In . SVG Version: 6.00 Build 0)  -->
<!DOCTYPE svg PUBLIC "-//W3C//DTD SVG 1.1//EN" "http://www.w3.org/Graphics/SVG/1.1/DTD/svg11.dtd">
<svg version="1.1" id="Layer_1" xmlns="http://www.w3.org/2000/svg" xmlns:xlink="http://www.w3.org/1999/xlink" x="0px" y="0px"
	 width="75px" height="75px" viewBox="0 0 75 75" enable-background="new 0 0 75 75" xml:space="preserve">
<path d="M57.874,31.305C53.676,19.317,42.576,11.197,30,10.78V7c0-0.552-0.448-1-1-1s-1,0.448-1,1v3.78
	C15.364,11.191,4.211,19.397,0.054,31.495c-0.124,0.36-0.032,0.759,0.235,1.029c0.268,0.271,0.667,0.367,1.026,0.245
	c1.033-0.344,2.131-0.519,3.264-0.519c2.956,0,5.708,1.222,7.362,3.269c0.19,0.235,0.476,0.372,0.778,0.372c0,0,0.001,0,0.001,0
	c0.303,0,0.588-0.138,0.778-0.373c1.65-2.052,4.402-3.277,7.36-3.277c2.836,0,5.472,1.135,7.14,3.036v26.944
	C28,65.959,31.023,69,34.74,69c3.722,0,6.75-3.041,6.75-6.779c0-0.553-0.447-1-1-1s-1,0.447-1,1c0,2.636-2.131,4.779-4.75,4.779
	C32.126,67,30,64.856,30,62.221V35.276c1.668-1.901,4.304-3.036,7.14-3.036c2.958,0,5.709,1.225,7.36,3.277
	c0.189,0.236,0.477,0.373,0.779,0.373s0.589-0.137,0.779-0.373c1.651-2.052,4.403-3.277,7.361-3.277c1.107,0,2.204,0.175,3.26,0.52
	c0.105,0.035,0.23,0.045,0.321,0.05c0.522-0.014,1.009-0.445,1.009-1C58.01,31.626,57.96,31.453,57.874,31.305z M53.42,30.24
	c-3.134,0-6.094,1.167-8.141,3.166c-2.046-2-5.005-3.166-8.139-3.166c-3.134,0-6.094,1.167-8.14,3.166
	c-2.046-2-5.006-3.166-8.14-3.166c-3.135,0-6.095,1.167-8.141,3.167C10.67,31.414,7.71,30.25,4.58,30.25
	c-0.668,0-1.327,0.051-1.973,0.153c4.432-10.628,14.796-17.648,26.351-17.662c0.015,0.001,0.027,0.009,0.042,0.009
	c0.014,0,0.025-0.007,0.039-0.008c11.56,0.02,21.92,7.035,26.346,17.654C54.736,30.292,54.08,30.24,53.42,30.24z"/>
</svg>
