<?xml version="1.0" encoding="utf-8"?>
<!-- Generator: Adobe Illustrator 16.0.0, SVG Export Plug-In . SVG Version: 6.00 Build 0)  -->
<!DOCTYPE svg PUBLIC "-//W3C//DTD SVG 1.1//EN" "http://www.w3.org/Graphics/SVG/1.1/DTD/svg11.dtd">
<svg version="1.1" id="Layer_1" xmlns="http://www.w3.org/2000/svg" xmlns:xlink="http://www.w3.org/1999/xlink" x="0px" y="0px"
	 width="75px" height="75px" viewBox="0 0 75 75" enable-background="new 0 0 75 75" xml:space="preserve">
<g>
	<path d="M70.813,32.048c-0.321-0.449-0.945-0.552-1.396-0.231L37.687,54.521C37.206,54.192,36.626,54,36,54
		c-0.652,0-1.25,0.213-1.743,0.566L1.582,31.187c-0.45-0.322-1.074-0.217-1.396,0.231c-0.321,0.449-0.218,1.074,0.231,1.396
		l32.7,23.397C33.049,56.464,33,56.725,33,57c0,1.656,1.343,3,3,3s3-1.344,3-3c0-0.301-0.058-0.585-0.14-0.859l31.722-22.697
		C71.031,33.122,71.135,32.497,70.813,32.048z"/>
	<path d="M14.872,26.04C19.628,19.413,27.209,15.5,35.45,15.5c8.237,0,15.817,3.914,20.575,10.542L52.63,26.27l7.261,6.17
		l-0.65-9.51l-2.282,2.706C52.021,18.641,44.084,14.5,35.45,14.5c-8.638,0-16.575,4.14-21.51,11.134l-2.29-2.704l-0.64,9.51
		l7.26-6.18L14.872,26.04z"/>
</g>
</svg>
